External Loads File
version=1
nRows=85
nColumns=13
Range=5.000000e-03-10 seconds
endheader
time 	forceRightX 	forceRightY 	forceRightZ 	pointRightX 	pointRightY 	pointRightZ 	forceLeftX 	forceLeftY 	forceLeftZ 	pointLeftX 	pointLeftY 	pointLeftZ 		
5.005000 92.384860 814.381081 -0.000000 0.386010 0.174709 -0.124979 -13.737198 -32.150173 -0.000000 0.245019 0.459986 -0.362526
5.010000 99.699879 817.201531 -0.000000 0.381185 0.170713 -0.125367 -15.395348 -20.914842 -0.000000 0.250805 0.464335 -0.362681
5.015000 109.588227 814.598835 -0.000000 0.375231 0.166951 -0.125316 -16.269736 -8.816681 -0.000000 0.257052 0.468307 -0.363247
5.020000 117.421762 806.864609 -0.000000 0.369268 0.163587 -0.125362 -16.420331 3.665740 -0.000000 0.262954 0.472076 -0.363191
5.025000 124.922348 793.595752 -0.000000 0.363065 0.160529 -0.125617 -16.113495 16.153222 -0.000000 0.269090 0.475563 -0.363344
5.030000 130.896947 774.895498 -0.000000 0.356829 0.157673 -0.125621 -15.632493 28.226383 -0.000000 0.275207 0.478728 -0.363589
5.035000 134.358538 750.967509 -0.000000 0.350932 0.155115 -0.125372 -15.314558 39.535088 -0.000000 0.281282 0.481646 -0.363812
5.040000 136.938461 721.637916 -0.000000 0.344735 0.153065 -0.125313 -15.341598 49.880298 -0.000000 0.287474 0.484253 -0.363980
5.045000 138.363705 687.126219 -0.000000 0.338204 0.151182 -0.125996 -15.889301 59.132476 -0.000000 0.293568 0.486558 -0.364081
5.050000 137.654223 647.908282 -0.000000 0.332039 0.149588 -0.125992 -17.143809 67.251255 -0.000000 0.299769 0.488669 -0.364173
5.055000 135.477010 604.248645 -0.000000 0.325810 0.148396 -0.125959 -19.071544 74.328259 -0.000000 0.305937 0.490499 -0.364171
5.060000 133.871798 556.197665 -0.000000 0.318491 0.147436 -0.125429 -21.310754 80.578949 -0.000000 0.312222 0.491996 -0.364138
5.065000 127.279027 505.821022 -0.000000 0.313286 0.146930 -0.125883 -24.540341 85.947505 -0.000000 0.318284 0.492994 -0.364009
5.070000 122.941739 452.315613 -0.000000 0.305846 0.146770 -0.125372 -27.492638 90.913534 -0.000000 0.324366 0.493731 -0.364063
5.075000 116.184741 398.019072 -0.000000 0.299431 0.146948 -0.125289 -30.842348 95.445588 -0.000000 0.330410 0.494147 -0.364100
5.080000 108.925692 343.666994 -0.000000 0.292775 0.147512 -0.125439 -34.154206 99.875610 -0.000000 0.336393 0.494110 -0.364143
5.085000 100.910294 290.543744 -0.000000 0.286285 0.148393 -0.125350 -37.436185 104.445052 -0.000000 0.342301 0.493617 -0.364191
5.090000 92.648526 239.565604 -0.000000 0.279723 0.149558 -0.125350 -40.466602 109.512149 -0.000000 0.348267 0.492817 -0.364471
5.095000 84.127589 191.642755 -0.000000 0.273106 0.151159 -0.125262 -43.166425 115.403217 -0.000000 0.354025 0.491615 -0.364671
5.100000 75.482600 147.463143 -0.000000 0.266500 0.153126 -0.125259 -45.428064 122.438648 -0.000000 0.359477 0.489908 -0.365015
5.105000 67.054481 107.436378 -0.000000 0.259825 0.155360 -0.125277 -46.982407 130.967866 -0.000000 0.364982 0.487664 -0.364844
5.110000 58.844166 71.987125 -0.000000 0.252870 0.157922 -0.125108 -47.849546 141.205486 -0.000000 0.370129 0.485217 -0.364924
5.115000 50.931475 41.427915 -0.000000 0.246466 0.160867 -0.125276 -48.249027 153.283467 -0.000000 0.375069 0.482371 -0.365115
5.120000 43.613298 15.802108 -0.000000 0.240147 0.164130 -0.125463 -48.057393 167.412466 -0.000000 0.379817 0.479142 -0.365348
5.125000 37.055201 -4.822656 -0.000000 0.233841 0.167702 -0.125542 -47.354668 183.642354 -0.000000 0.384436 0.475582 -0.365714
5.130000 31.415287 -20.395950 -0.000000 0.227605 0.171541 -0.125562 -46.391349 201.837001 -0.000000 0.388749 0.471337 -0.366059
5.135000 26.818717 -30.953070 -0.000000 0.221379 0.175771 -0.125589 -45.319572 221.700714 -0.000000 0.393027 0.466851 -0.366386
5.140000 23.351979 -36.595212 -0.000000 0.215352 0.180235 -0.125548 -44.432762 242.688363 -0.000000 0.397273 0.461936 -0.366751
5.145000 21.041691 -37.539781 -0.000000 0.209644 0.185035 -0.125548 -44.062998 264.053239 -0.000000 0.401350 0.456782 -0.367151
5.150000 19.800237 -34.156781 -0.000000 0.204229 0.190005 -0.125305 -44.309988 284.986929 -0.000000 0.405354 0.451381 -0.367505
5.155000 19.487052 -26.969457 -0.000000 0.199036 0.195142 -0.125345 -45.094221 304.756035 -0.000000 0.409242 0.445528 -0.367777
5.160000 20.016329 -16.631308 -0.000000 0.194167 0.200520 -0.125392 -46.631483 322.767282 -0.000000 0.412987 0.439486 -0.368050
5.165000 21.318720 -3.953648 -0.000000 0.189610 0.205975 -0.125408 -48.999271 338.686905 -0.000000 0.416586 0.433144 -0.368231
5.170000 23.347534 10.117495 -0.000000 0.185419 0.211693 -0.125361 -52.312503 352.403543 -0.000000 0.420047 0.426725 -0.368402
5.175000 26.051109 24.500737 -0.000000 0.181506 0.217713 -0.125304 -56.243264 364.074417 -0.000000 0.423368 0.419969 -0.368488
5.180000 29.267679 38.132078 -0.000000 0.177928 0.223848 -0.125243 -61.184393 373.905141 -0.000000 0.426459 0.413144 -0.368631
5.185000 32.806266 49.961298 -0.000000 0.174709 0.230035 -0.125155 -66.654302 382.332300 -0.000000 0.429672 0.406090 -0.368612
5.190000 36.481095 59.112836 -0.000000 0.171721 0.236545 -0.125032 -72.213484 389.845166 -0.000000 0.432556 0.398660 -0.368847
5.195000 40.041572 65.012133 -0.000000 0.169063 0.243257 -0.124878 -77.886724 396.855787 -0.000000 0.435516 0.391216 -0.368696
5.200000 43.203270 67.404191 -0.000000 0.166709 0.250052 -0.124700 -83.763663 403.703636 -0.000000 0.438125 0.383677 -0.368705
5.205000 45.851780 66.219623 -0.000000 0.164652 0.257421 -0.124562 -88.892156 410.864318 -0.000000 0.440487 0.375974 -0.368722
5.210000 47.553667 61.859901 -0.000000 0.163071 0.264559 -0.124307 -94.349064 418.317610 -0.000000 0.442546 0.368206 -0.368818
5.215000 48.249226 54.677395 -0.000000 0.161449 0.272023 -0.124202 -98.974198 426.483040 -0.000000 0.444475 0.360377 -0.368774
5.220000 47.645159 45.349371 -0.000000 0.160243 0.279569 -0.124185 -103.212703 435.397577 -0.000000 0.446356 0.352514 -0.368461
5.225000 45.574549 34.578086 -0.000000 0.159376 0.287140 -0.124153 -107.056409 445.164313 -0.000000 0.447597 0.344514 -0.368638
5.230000 41.984316 23.023263 -0.000000 0.158809 0.294989 -0.124204 -110.017791 455.974541 -0.000000 0.448839 0.336529 -0.368365
5.235000 36.857908 11.404688 -0.000000 0.158661 0.302746 -0.124236 -112.616448 467.757560 -0.000000 0.449631 0.328454 -0.368491
5.240000 30.359185 0.306541 -0.000000 0.158076 0.310532 -0.125271 -114.647380 480.596716 -0.000000 0.450226 0.320362 -0.368467
5.245000 22.762566 -9.739733 -0.000000 0.158715 0.318321 -0.125370 -116.205033 494.468101 -0.000000 0.450516 0.312181 -0.368403
5.250000 14.445731 -18.314631 -0.000000 0.159952 0.326196 -0.125406 -117.284449 509.323214 -0.000000 0.450572 0.304096 -0.368503
5.255000 5.854550 -25.137662 -0.000000 0.161426 0.333913 -0.125608 -118.271743 524.996943 -0.000000 0.450261 0.296102 -0.368123
5.260000 -2.610788 -30.129974 -0.000000 0.163166 0.341507 -0.125755 -119.007330 541.470174 -0.000000 0.449583 0.288148 -0.368004
5.265000 -10.662068 -33.367027 -0.000000 0.165319 0.349055 -0.125771 -119.229678 558.783048 -0.000000 0.448552 0.280222 -0.367892
5.270000 -18.084342 -35.046959 -0.000000 0.167824 0.356537 -0.125667 -119.198557 576.899682 -0.000000 0.447183 0.272467 -0.367752
5.275000 -24.753243 -35.437978 -0.000000 0.170722 0.363864 -0.125676 -118.672798 595.939620 -0.000000 0.445419 0.264734 -0.367637
5.280000 -30.541523 -34.876686 -0.000000 0.173986 0.371155 -0.125717 -118.102505 615.942984 -0.000000 0.443318 0.257400 -0.367471
5.285000 -35.470014 -33.600534 -0.000000 0.177563 0.378451 -0.125666 -116.002566 637.352375 -0.000000 0.440899 0.249774 -0.367325
5.290000 -39.460050 -31.902600 -0.000000 0.181431 0.385812 -0.125598 -113.198653 660.130192 -0.000000 0.438108 0.242450 -0.367200
5.295000 -42.520283 -29.932844 -0.000000 0.185729 0.392944 -0.125655 -109.283814 684.395716 -0.000000 0.434971 0.235139 -0.367056
5.300000 -44.629110 -27.804771 -0.000000 0.189951 0.400047 -0.125712 -104.682972 710.026634 -0.000000 0.431469 0.228112 -0.366897
5.305000 -45.864870 -25.447797 -0.000000 0.194609 0.407071 -0.125751 -97.976194 737.042691 -0.000000 0.427606 0.221112 -0.366837
5.310000 -46.271814 -22.868349 -0.000000 0.199416 0.413997 -0.125909 -89.779287 764.985528 -0.000000 0.423425 0.214389 -0.366689
5.315000 -45.987874 -19.958131 -0.000000 0.204489 0.420721 -0.125979 -79.495169 793.389773 -0.000000 0.418917 0.207791 -0.366523
5.320000 -45.166079 -16.611757 -0.000000 0.209889 0.427188 -0.126203 -67.189338 821.543171 -0.000000 0.414074 0.201525 -0.366412
5.325000 -43.976696 -12.703280 -0.000000 0.215197 0.433535 -0.126367 -53.247898 848.602612 -0.000000 0.409005 0.195434 -0.366339
5.330000 -42.587594 -8.030368 -0.000000 0.220765 0.439796 -0.126510 -36.922716 873.744651 -0.000000 0.403605 0.189642 -0.366204
5.335000 -41.084364 -2.443496 -0.000000 0.226957 0.445645 -0.126572 -18.144483 896.071523 -0.000000 0.397990 0.184099 -0.366133
5.340000 -39.490935 4.081663 -0.000000 0.233034 0.451208 -0.126819 1.309914 914.730520 -0.000000 0.392091 0.178932 -0.366047
5.345000 -37.814374 11.619781 -0.000000 0.239633 0.456456 -0.126552 22.361342 929.036475 -0.000000 0.386045 0.174083 -0.365915
5.350000 -36.093618 20.032239 -0.000000 0.245993 0.461621 -0.127180 42.903525 938.425601 -0.000000 0.379835 0.169611 -0.365795
5.355000 -34.373268 29.234879 -0.000000 0.252650 0.466419 -0.127378 63.675072 942.359690 -0.000000 0.373460 0.165363 -0.365656
5.360000 -32.762513 39.031925 -0.000000 0.259401 0.470852 -0.127450 83.569600 940.426385 -0.000000 0.366945 0.161408 -0.365537
5.365000 -31.376085 49.210856 -0.000000 0.266284 0.475179 -0.127499 102.100042 932.295525 -0.000000 0.360374 0.157969 -0.365398
5.370000 -30.357747 59.488230 -0.000000 0.273081 0.478953 -0.127285 118.202883 917.847818 -0.000000 0.353708 0.154928 -0.365299
5.375000 -29.706250 69.634702 -0.000000 0.280316 0.482264 -0.127629 132.962421 896.842989 -0.000000 0.347030 0.152228 -0.365129
5.380000 -29.417637 79.414907 -0.000000 0.288021 0.485297 -0.127511 146.500493 869.233233 -0.000000 0.340243 0.149995 -0.364980
5.385000 -29.864973 88.481402 -0.000000 0.294751 0.488120 -0.127726 154.826019 835.853662 -0.000000 0.333443 0.148090 -0.364894
5.390000 -30.728141 96.766229 -0.000000 0.301930 0.490450 -0.127775 161.292207 796.446605 -0.000000 0.326666 0.146642 -0.364835
5.395000 -32.063952 104.120741 -0.000000 0.309094 0.492393 -0.127806 164.913451 751.544325 -0.000000 0.319894 0.145529 -0.364680
5.400000 -33.810271 110.530029 -0.000000 0.316292 0.493932 -0.127944 165.870612 701.506310 -0.000000 0.313149 0.144839 -0.364513
5.405000 -35.937448 116.045870 -0.000000 0.323371 0.495086 -0.128148 164.032320 646.839044 -0.000000 0.306434 0.144600 -0.364354
5.410000 -38.307203 120.803500 -0.000000 0.330436 0.495736 -0.128256 159.791646 588.088784 -0.000000 0.299758 0.144683 -0.364190
5.415000 -40.749805 124.981567 -0.000000 0.337600 0.495995 -0.128397 153.464180 526.049114 -0.000000 0.293136 0.145109 -0.364065
5.420000 -43.165554 128.751931 -0.000000 0.344695 0.495835 -0.128546 144.993717 461.903975 -0.000000 0.286601 0.146073 -0.363931
5.425000 -45.414102 132.317795 -0.000000 0.351632 0.495211 -0.128513 134.684343 397.032269 -0.000000 0.280105 0.147517 -0.363765
